<svg class="lds-gear" width="200px"  height="200px"  xmlns="http://www.w3.org/2000/svg" xmlns:xlink="http://www.w3.org/1999/xlink" viewBox="0 0 100 100" preserveAspectRatio="xMidYMid" style="background: rgba(0, 0, 0, 0) none repeat scroll 0% 0%;"><g transform="translate(50 50)">
<g>
<animateTransform attributeName="transform" type="rotate" values="0;360" keyTimes="0;1" dur="9.4s" repeatCount="indefinite"></animateTransform><path d="M29.58039891549808 -5 L39.58039891549808 -5 L39.58039891549808 5 L29.58039891549808 5 A30 30 0 0 1 28.117376914898998 10.460072438826845 L28.117376914898998 10.460072438826845 L36.77763095274339 15.460072438826845 L31.777630952743387 24.12032647667123 L23.117376914898998 19.12032647667123 A30 30 0 0 1 19.120326476671238 23.117376914898994 L19.120326476671238 23.117376914898994 L24.120326476671238 31.77763095274338 L15.460072438826852 36.77763095274338 L10.46007243882685 28.117376914898998 A30 30 0 0 1 5.000000000000001 29.58039891549808 L5.000000000000001 29.58039891549808 L5.000000000000002 39.58039891549808 L-4.9999999999999964 39.58039891549808 L-4.999999999999997 29.58039891549808 A30 30 0 0 1 -10.46007243882684 28.117376914898998 L-10.46007243882684 28.117376914898998 L-15.460072438826838 36.77763095274339 L-24.120326476671224 31.777630952743387 L-19.120326476671227 23.117376914899 A30 30 0 0 1 -23.11737691489899 19.120326476671245 L-23.11737691489899 19.120326476671245 L-31.777630952743372 24.12032647667125 L-36.77763095274338 15.460072438826863 L-28.117376914898994 10.46007243882686 A30 30 0 0 1 -29.58039891549808 5.000000000000002 L-29.58039891549808 5.000000000000002 L-39.58039891549808 5.000000000000003 L-39.58039891549808 -4.999999999999995 L-29.58039891549808 -4.999999999999996 A30 30 0 0 1 -28.117376914898998 -10.460072438826838 L-28.117376914898998 -10.460072438826838 L-36.77763095274339 -15.460072438826836 L-31.777630952743394 -24.120326476671224 L-23.117376914899005 -19.120326476671227 A30 30 0 0 1 -19.120326476671252 -23.11737691489898 L-19.120326476671252 -23.11737691489898 L-24.120326476671256 -31.777630952743365 L-15.460072438826852 -36.77763095274338 L-10.460072438826849 -28.117376914898998 A30 30 0 0 1 -5.000000000000017 -29.580398915498076 L-5.000000000000017 -29.580398915498076 L-5.000000000000019 -39.58039891549808 L5.000000000000004 -39.58039891549808 L5.000000000000006 -29.58039891549808 A30 30 0 0 1 10.460072438826812 -28.11737691489901 L10.460072438826812 -28.11737691489901 L15.460072438826804 -36.7776309527434 L24.120326476671217 -31.777630952743394 L19.120326476671224 -23.117376914899005 A30 30 0 0 1 23.117376914898976 -19.120326476671252 L23.117376914898976 -19.120326476671252 L31.77763095274336 -24.120326476671256 L36.77763095274338 -15.460072438826854 L28.117376914898998 -10.46007243882685 A30 30 0 0 1 29.580398915498076 -5.0000000000000195 M0 -25A25 25 0 1 0 0 25 A25 25 0 1 0 0 -25" fill="#ffffff"></path></g></g></svg>